<mxfile host="app.diagrams.net" agent="Mozilla/5.0 (Windows NT 10.0; Win64; x64) AppleWebKit/537.36 (KHTML, like Gecko) Chrome/129.0.0.0 Safari/537.36" version="24.7.17">
  <diagram name="Page-1" id="sm3-m3mpt8i_qmUcEuUx">
    <mxGraphModel dx="2647" dy="1530" grid="1" gridSize="10" guides="0" tooltips="1" connect="1" arrows="1" fold="1" page="1" pageScale="1" pageWidth="1100" pageHeight="1700" math="0" shadow="0">
      <root>
        <mxCell id="0" />
        <mxCell id="1" parent="0" />
        <mxCell id="jAPhLrULdVB-Pl4PE20Y-8" value="w2054640_Instructor" style="swimlane;fontStyle=0;childLayout=stackLayout;horizontal=1;startSize=30;horizontalStack=0;resizeParent=1;resizeParentMax=0;resizeLast=0;collapsible=1;marginBottom=0;whiteSpace=wrap;html=1;glass=0;shadow=0;" vertex="1" parent="1">
          <mxGeometry x="440" y="100" width="190" height="120" as="geometry">
            <mxRectangle x="300" y="130" width="150" height="30" as="alternateBounds" />
          </mxGeometry>
        </mxCell>
        <mxCell id="jAPhLrULdVB-Pl4PE20Y-9" value="w2054640_Instructor_ID(PK)" style="text;strokeColor=none;fillColor=none;align=left;verticalAlign=middle;spacingLeft=4;spacingRight=4;overflow=hidden;points=[[0,0.5],[1,0.5]];portConstraint=eastwest;rotatable=0;whiteSpace=wrap;html=1;" vertex="1" parent="jAPhLrULdVB-Pl4PE20Y-8">
          <mxGeometry y="30" width="190" height="30" as="geometry" />
        </mxCell>
        <mxCell id="jAPhLrULdVB-Pl4PE20Y-11" value="w2054640_Name" style="text;strokeColor=none;fillColor=none;align=left;verticalAlign=middle;spacingLeft=4;spacingRight=4;overflow=hidden;points=[[0,0.5],[1,0.5]];portConstraint=eastwest;rotatable=0;whiteSpace=wrap;html=1;" vertex="1" parent="jAPhLrULdVB-Pl4PE20Y-8">
          <mxGeometry y="60" width="190" height="30" as="geometry" />
        </mxCell>
        <mxCell id="jAPhLrULdVB-Pl4PE20Y-12" value="w2054640_Specialty" style="text;strokeColor=none;fillColor=none;align=left;verticalAlign=middle;spacingLeft=4;spacingRight=4;overflow=hidden;points=[[0,0.5],[1,0.5]];portConstraint=eastwest;rotatable=0;whiteSpace=wrap;html=1;" vertex="1" parent="jAPhLrULdVB-Pl4PE20Y-8">
          <mxGeometry y="90" width="190" height="30" as="geometry" />
        </mxCell>
        <mxCell id="jAPhLrULdVB-Pl4PE20Y-13" value="w2054640_Session" style="swimlane;fontStyle=0;childLayout=stackLayout;horizontal=1;startSize=30;horizontalStack=0;resizeParent=1;resizeParentMax=0;resizeLast=0;collapsible=1;marginBottom=0;whiteSpace=wrap;html=1;" vertex="1" parent="1">
          <mxGeometry x="440" y="320" width="190" height="180" as="geometry" />
        </mxCell>
        <mxCell id="jAPhLrULdVB-Pl4PE20Y-15" value="&lt;span style=&quot;text-align: center;&quot;&gt;w2054640_Session_ID(PK)&lt;/span&gt;" style="text;strokeColor=none;fillColor=none;align=left;verticalAlign=middle;spacingLeft=4;spacingRight=4;overflow=hidden;points=[[0,0.5],[1,0.5]];portConstraint=eastwest;rotatable=0;whiteSpace=wrap;html=1;" vertex="1" parent="jAPhLrULdVB-Pl4PE20Y-13">
          <mxGeometry y="30" width="190" height="30" as="geometry" />
        </mxCell>
        <mxCell id="jAPhLrULdVB-Pl4PE20Y-14" value="&lt;span style=&quot;text-align: center;&quot;&gt;w2054640_Session_Type&lt;/span&gt;" style="text;strokeColor=none;fillColor=none;align=left;verticalAlign=middle;spacingLeft=4;spacingRight=4;overflow=hidden;points=[[0,0.5],[1,0.5]];portConstraint=eastwest;rotatable=0;whiteSpace=wrap;html=1;" vertex="1" parent="jAPhLrULdVB-Pl4PE20Y-13">
          <mxGeometry y="60" width="190" height="30" as="geometry" />
        </mxCell>
        <mxCell id="jAPhLrULdVB-Pl4PE20Y-16" value="&lt;span style=&quot;text-align: center;&quot;&gt;w2054640_Session_Category&lt;/span&gt;" style="text;strokeColor=none;fillColor=none;align=left;verticalAlign=middle;spacingLeft=4;spacingRight=4;overflow=hidden;points=[[0,0.5],[1,0.5]];portConstraint=eastwest;rotatable=0;whiteSpace=wrap;html=1;" vertex="1" parent="jAPhLrULdVB-Pl4PE20Y-13">
          <mxGeometry y="90" width="190" height="30" as="geometry" />
        </mxCell>
        <mxCell id="jAPhLrULdVB-Pl4PE20Y-17" value="&lt;span style=&quot;text-align: center;&quot;&gt;w2054640_Instructor_ID(FK)&lt;/span&gt;" style="text;strokeColor=none;fillColor=none;align=left;verticalAlign=middle;spacingLeft=4;spacingRight=4;overflow=hidden;points=[[0,0.5],[1,0.5]];portConstraint=eastwest;rotatable=0;whiteSpace=wrap;html=1;" vertex="1" parent="jAPhLrULdVB-Pl4PE20Y-13">
          <mxGeometry y="120" width="190" height="30" as="geometry" />
        </mxCell>
        <mxCell id="jAPhLrULdVB-Pl4PE20Y-18" value="&lt;span style=&quot;text-align: center;&quot;&gt;w2054640_Booking_ID(FK)&lt;/span&gt;" style="text;strokeColor=none;fillColor=none;align=left;verticalAlign=middle;spacingLeft=4;spacingRight=4;overflow=hidden;points=[[0,0.5],[1,0.5]];portConstraint=eastwest;rotatable=0;whiteSpace=wrap;html=1;" vertex="1" parent="jAPhLrULdVB-Pl4PE20Y-13">
          <mxGeometry y="150" width="190" height="30" as="geometry" />
        </mxCell>
        <mxCell id="jAPhLrULdVB-Pl4PE20Y-19" value="w2054640_Booking" style="swimlane;fontStyle=0;childLayout=stackLayout;horizontal=1;startSize=30;horizontalStack=0;resizeParent=1;resizeParentMax=0;resizeLast=0;collapsible=1;marginBottom=0;whiteSpace=wrap;html=1;" vertex="1" parent="1">
          <mxGeometry x="440" y="640" width="200" height="270" as="geometry" />
        </mxCell>
        <mxCell id="jAPhLrULdVB-Pl4PE20Y-20" value="&lt;span style=&quot;text-align: center;&quot;&gt;w2054640_Booking_ID(PK)&lt;/span&gt;" style="text;strokeColor=none;fillColor=none;align=left;verticalAlign=middle;spacingLeft=4;spacingRight=4;overflow=hidden;points=[[0,0.5],[1,0.5]];portConstraint=eastwest;rotatable=0;whiteSpace=wrap;html=1;" vertex="1" parent="jAPhLrULdVB-Pl4PE20Y-19">
          <mxGeometry y="30" width="200" height="30" as="geometry" />
        </mxCell>
        <mxCell id="jAPhLrULdVB-Pl4PE20Y-21" value="&lt;span style=&quot;text-align: center;&quot;&gt;w2054640_Booking_Date&lt;/span&gt;" style="text;strokeColor=none;fillColor=none;align=left;verticalAlign=middle;spacingLeft=4;spacingRight=4;overflow=hidden;points=[[0,0.5],[1,0.5]];portConstraint=eastwest;rotatable=0;whiteSpace=wrap;html=1;" vertex="1" parent="jAPhLrULdVB-Pl4PE20Y-19">
          <mxGeometry y="60" width="200" height="30" as="geometry" />
        </mxCell>
        <mxCell id="jAPhLrULdVB-Pl4PE20Y-22" value="&lt;span style=&quot;text-align: center;&quot;&gt;w2054640_Start_Time&lt;/span&gt;" style="text;strokeColor=none;fillColor=none;align=left;verticalAlign=middle;spacingLeft=4;spacingRight=4;overflow=hidden;points=[[0,0.5],[1,0.5]];portConstraint=eastwest;rotatable=0;whiteSpace=wrap;html=1;" vertex="1" parent="jAPhLrULdVB-Pl4PE20Y-19">
          <mxGeometry y="90" width="200" height="30" as="geometry" />
        </mxCell>
        <mxCell id="jAPhLrULdVB-Pl4PE20Y-23" value="&lt;span style=&quot;text-align: center;&quot;&gt;w2054640_End_Time&lt;/span&gt;" style="text;strokeColor=none;fillColor=none;align=left;verticalAlign=middle;spacingLeft=4;spacingRight=4;overflow=hidden;points=[[0,0.5],[1,0.5]];portConstraint=eastwest;rotatable=0;whiteSpace=wrap;html=1;" vertex="1" parent="jAPhLrULdVB-Pl4PE20Y-19">
          <mxGeometry y="120" width="200" height="30" as="geometry" />
        </mxCell>
        <mxCell id="jAPhLrULdVB-Pl4PE20Y-24" value="&lt;span style=&quot;text-align: center;&quot;&gt;w2054640_Player_ID(PK)&lt;/span&gt;" style="text;strokeColor=none;fillColor=none;align=left;verticalAlign=middle;spacingLeft=4;spacingRight=4;overflow=hidden;points=[[0,0.5],[1,0.5]];portConstraint=eastwest;rotatable=0;whiteSpace=wrap;html=1;" vertex="1" parent="jAPhLrULdVB-Pl4PE20Y-19">
          <mxGeometry y="150" width="200" height="30" as="geometry" />
        </mxCell>
        <mxCell id="jAPhLrULdVB-Pl4PE20Y-25" value="&lt;span style=&quot;text-align: center;&quot;&gt;w2054640_Court_ID(FK)&lt;/span&gt;" style="text;strokeColor=none;fillColor=none;align=left;verticalAlign=middle;spacingLeft=4;spacingRight=4;overflow=hidden;points=[[0,0.5],[1,0.5]];portConstraint=eastwest;rotatable=0;whiteSpace=wrap;html=1;" vertex="1" parent="jAPhLrULdVB-Pl4PE20Y-19">
          <mxGeometry y="180" width="200" height="30" as="geometry" />
        </mxCell>
        <mxCell id="jAPhLrULdVB-Pl4PE20Y-26" value="&lt;span style=&quot;text-align: center;&quot;&gt;w2054640_Session_Type&lt;/span&gt;" style="text;strokeColor=none;fillColor=none;align=left;verticalAlign=middle;spacingLeft=4;spacingRight=4;overflow=hidden;points=[[0,0.5],[1,0.5]];portConstraint=eastwest;rotatable=0;whiteSpace=wrap;html=1;" vertex="1" parent="jAPhLrULdVB-Pl4PE20Y-19">
          <mxGeometry y="210" width="200" height="30" as="geometry" />
        </mxCell>
        <mxCell id="jAPhLrULdVB-Pl4PE20Y-27" value="&lt;span style=&quot;text-align: center;&quot;&gt;w2054640_Block_Booking_ID(FK)&lt;/span&gt;" style="text;strokeColor=none;fillColor=none;align=left;verticalAlign=middle;spacingLeft=4;spacingRight=4;overflow=hidden;points=[[0,0.5],[1,0.5]];portConstraint=eastwest;rotatable=0;whiteSpace=wrap;html=1;" vertex="1" parent="jAPhLrULdVB-Pl4PE20Y-19">
          <mxGeometry y="240" width="200" height="30" as="geometry" />
        </mxCell>
        <mxCell id="jAPhLrULdVB-Pl4PE20Y-28" value="w2054640_Block_Booking" style="swimlane;fontStyle=0;childLayout=stackLayout;horizontal=1;startSize=30;horizontalStack=0;resizeParent=1;resizeParentMax=0;resizeLast=0;collapsible=1;marginBottom=0;whiteSpace=wrap;html=1;" vertex="1" parent="1">
          <mxGeometry x="440" y="1040" width="200" height="150" as="geometry" />
        </mxCell>
        <mxCell id="jAPhLrULdVB-Pl4PE20Y-29" value="&lt;span style=&quot;text-align: center;&quot;&gt;w2054640_Block_Booking_ID(PK)&lt;/span&gt;" style="text;strokeColor=none;fillColor=none;align=left;verticalAlign=middle;spacingLeft=4;spacingRight=4;overflow=hidden;points=[[0,0.5],[1,0.5]];portConstraint=eastwest;rotatable=0;whiteSpace=wrap;html=1;" vertex="1" parent="jAPhLrULdVB-Pl4PE20Y-28">
          <mxGeometry y="30" width="200" height="30" as="geometry" />
        </mxCell>
        <mxCell id="jAPhLrULdVB-Pl4PE20Y-30" value="&lt;span style=&quot;text-align: center;&quot;&gt;w2054640_Start_Date&lt;/span&gt;" style="text;strokeColor=none;fillColor=none;align=left;verticalAlign=middle;spacingLeft=4;spacingRight=4;overflow=hidden;points=[[0,0.5],[1,0.5]];portConstraint=eastwest;rotatable=0;whiteSpace=wrap;html=1;" vertex="1" parent="jAPhLrULdVB-Pl4PE20Y-28">
          <mxGeometry y="60" width="200" height="30" as="geometry" />
        </mxCell>
        <mxCell id="jAPhLrULdVB-Pl4PE20Y-31" value="&lt;span style=&quot;text-align: center;&quot;&gt;w2054640_End_Date&lt;/span&gt;" style="text;strokeColor=none;fillColor=none;align=left;verticalAlign=middle;spacingLeft=4;spacingRight=4;overflow=hidden;points=[[0,0.5],[1,0.5]];portConstraint=eastwest;rotatable=0;whiteSpace=wrap;html=1;" vertex="1" parent="jAPhLrULdVB-Pl4PE20Y-28">
          <mxGeometry y="90" width="200" height="30" as="geometry" />
        </mxCell>
        <mxCell id="jAPhLrULdVB-Pl4PE20Y-32" value="&lt;span style=&quot;text-align: center;&quot;&gt;w2054640_Player_ID(FK)&lt;/span&gt;" style="text;strokeColor=none;fillColor=none;align=left;verticalAlign=middle;spacingLeft=4;spacingRight=4;overflow=hidden;points=[[0,0.5],[1,0.5]];portConstraint=eastwest;rotatable=0;whiteSpace=wrap;html=1;" vertex="1" parent="jAPhLrULdVB-Pl4PE20Y-28">
          <mxGeometry y="120" width="200" height="30" as="geometry" />
        </mxCell>
        <mxCell id="jAPhLrULdVB-Pl4PE20Y-33" value="w2054640_Maintenace_Log" style="swimlane;fontStyle=0;childLayout=stackLayout;horizontal=1;startSize=30;horizontalStack=0;resizeParent=1;resizeParentMax=0;resizeLast=0;collapsible=1;marginBottom=0;whiteSpace=wrap;html=1;" vertex="1" parent="1">
          <mxGeometry x="30" y="640" width="250" height="240" as="geometry" />
        </mxCell>
        <mxCell id="jAPhLrULdVB-Pl4PE20Y-34" value="&lt;span style=&quot;text-align: center;&quot;&gt;w2054640_Maintenance_ID(PK)&lt;/span&gt;" style="text;strokeColor=none;fillColor=none;align=left;verticalAlign=middle;spacingLeft=4;spacingRight=4;overflow=hidden;points=[[0,0.5],[1,0.5]];portConstraint=eastwest;rotatable=0;whiteSpace=wrap;html=1;" vertex="1" parent="jAPhLrULdVB-Pl4PE20Y-33">
          <mxGeometry y="30" width="250" height="30" as="geometry" />
        </mxCell>
        <mxCell id="jAPhLrULdVB-Pl4PE20Y-35" value="&lt;span style=&quot;text-align: center;&quot;&gt;w2054640_Date&lt;/span&gt;" style="text;strokeColor=none;fillColor=none;align=left;verticalAlign=middle;spacingLeft=4;spacingRight=4;overflow=hidden;points=[[0,0.5],[1,0.5]];portConstraint=eastwest;rotatable=0;whiteSpace=wrap;html=1;" vertex="1" parent="jAPhLrULdVB-Pl4PE20Y-33">
          <mxGeometry y="60" width="250" height="30" as="geometry" />
        </mxCell>
        <mxCell id="jAPhLrULdVB-Pl4PE20Y-36" value="&lt;span style=&quot;text-align: center;&quot;&gt;w2054640_Time&lt;/span&gt;" style="text;strokeColor=none;fillColor=none;align=left;verticalAlign=middle;spacingLeft=4;spacingRight=4;overflow=hidden;points=[[0,0.5],[1,0.5]];portConstraint=eastwest;rotatable=0;whiteSpace=wrap;html=1;" vertex="1" parent="jAPhLrULdVB-Pl4PE20Y-33">
          <mxGeometry y="90" width="250" height="30" as="geometry" />
        </mxCell>
        <mxCell id="jAPhLrULdVB-Pl4PE20Y-37" value="&lt;span style=&quot;text-align: center;&quot;&gt;w2054640_Status&lt;/span&gt;" style="text;strokeColor=none;fillColor=none;align=left;verticalAlign=middle;spacingLeft=4;spacingRight=4;overflow=hidden;points=[[0,0.5],[1,0.5]];portConstraint=eastwest;rotatable=0;whiteSpace=wrap;html=1;" vertex="1" parent="jAPhLrULdVB-Pl4PE20Y-33">
          <mxGeometry y="120" width="250" height="30" as="geometry" />
        </mxCell>
        <mxCell id="jAPhLrULdVB-Pl4PE20Y-38" value="&lt;span style=&quot;text-align: center;&quot;&gt;w2054640_Log_Description&lt;/span&gt;" style="text;strokeColor=none;fillColor=none;align=left;verticalAlign=middle;spacingLeft=4;spacingRight=4;overflow=hidden;points=[[0,0.5],[1,0.5]];portConstraint=eastwest;rotatable=0;whiteSpace=wrap;html=1;" vertex="1" parent="jAPhLrULdVB-Pl4PE20Y-33">
          <mxGeometry y="150" width="250" height="30" as="geometry" />
        </mxCell>
        <mxCell id="jAPhLrULdVB-Pl4PE20Y-39" value="&lt;span style=&quot;text-align: center;&quot;&gt;w2054640_Court_ID(FK)&lt;/span&gt;" style="text;strokeColor=none;fillColor=none;align=left;verticalAlign=middle;spacingLeft=4;spacingRight=4;overflow=hidden;points=[[0,0.5],[1,0.5]];portConstraint=eastwest;rotatable=0;whiteSpace=wrap;html=1;" vertex="1" parent="jAPhLrULdVB-Pl4PE20Y-33">
          <mxGeometry y="180" width="250" height="30" as="geometry" />
        </mxCell>
        <mxCell id="jAPhLrULdVB-Pl4PE20Y-40" value="&lt;span style=&quot;text-align: center;&quot;&gt;w2054640_Caretaker_ID(FK)&lt;/span&gt;" style="text;strokeColor=none;fillColor=none;align=left;verticalAlign=middle;spacingLeft=4;spacingRight=4;overflow=hidden;points=[[0,0.5],[1,0.5]];portConstraint=eastwest;rotatable=0;whiteSpace=wrap;html=1;" vertex="1" parent="jAPhLrULdVB-Pl4PE20Y-33">
          <mxGeometry y="210" width="250" height="30" as="geometry" />
        </mxCell>
        <mxCell id="jAPhLrULdVB-Pl4PE20Y-41" value="w2054640_Court" style="swimlane;fontStyle=0;childLayout=stackLayout;horizontal=1;startSize=30;horizontalStack=0;resizeParent=1;resizeParentMax=0;resizeLast=0;collapsible=1;marginBottom=0;whiteSpace=wrap;html=1;" vertex="1" parent="1">
          <mxGeometry x="80" y="1050" width="200" height="150" as="geometry" />
        </mxCell>
        <mxCell id="jAPhLrULdVB-Pl4PE20Y-42" value="&lt;span style=&quot;text-align: center;&quot;&gt;w2054640_Court_ID(PK)&lt;/span&gt;" style="text;strokeColor=none;fillColor=none;align=left;verticalAlign=middle;spacingLeft=4;spacingRight=4;overflow=hidden;points=[[0,0.5],[1,0.5]];portConstraint=eastwest;rotatable=0;whiteSpace=wrap;html=1;" vertex="1" parent="jAPhLrULdVB-Pl4PE20Y-41">
          <mxGeometry y="30" width="200" height="30" as="geometry" />
        </mxCell>
        <mxCell id="jAPhLrULdVB-Pl4PE20Y-43" value="&lt;span style=&quot;text-align: center;&quot;&gt;w2054640_Court_Type&lt;/span&gt;" style="text;strokeColor=none;fillColor=none;align=left;verticalAlign=middle;spacingLeft=4;spacingRight=4;overflow=hidden;points=[[0,0.5],[1,0.5]];portConstraint=eastwest;rotatable=0;whiteSpace=wrap;html=1;" vertex="1" parent="jAPhLrULdVB-Pl4PE20Y-41">
          <mxGeometry y="60" width="200" height="30" as="geometry" />
        </mxCell>
        <mxCell id="jAPhLrULdVB-Pl4PE20Y-44" value="&lt;span style=&quot;text-align: center;&quot;&gt;w2054640_Location&lt;/span&gt;" style="text;strokeColor=none;fillColor=none;align=left;verticalAlign=middle;spacingLeft=4;spacingRight=4;overflow=hidden;points=[[0,0.5],[1,0.5]];portConstraint=eastwest;rotatable=0;whiteSpace=wrap;html=1;" vertex="1" parent="jAPhLrULdVB-Pl4PE20Y-41">
          <mxGeometry y="90" width="200" height="30" as="geometry" />
        </mxCell>
        <mxCell id="jAPhLrULdVB-Pl4PE20Y-45" value="&lt;span style=&quot;text-align: center;&quot;&gt;w2054640_Status&lt;/span&gt;" style="text;strokeColor=none;fillColor=none;align=left;verticalAlign=middle;spacingLeft=4;spacingRight=4;overflow=hidden;points=[[0,0.5],[1,0.5]];portConstraint=eastwest;rotatable=0;whiteSpace=wrap;html=1;" vertex="1" parent="jAPhLrULdVB-Pl4PE20Y-41">
          <mxGeometry y="120" width="200" height="30" as="geometry" />
        </mxCell>
        <mxCell id="jAPhLrULdVB-Pl4PE20Y-46" value="w2054640_Player" style="swimlane;fontStyle=0;childLayout=stackLayout;horizontal=1;startSize=30;horizontalStack=0;resizeParent=1;resizeParentMax=0;resizeLast=0;collapsible=1;marginBottom=0;whiteSpace=wrap;html=1;" vertex="1" parent="1">
          <mxGeometry x="800" y="1040" width="200" height="150" as="geometry" />
        </mxCell>
        <mxCell id="jAPhLrULdVB-Pl4PE20Y-47" value="&lt;span style=&quot;text-align: center;&quot;&gt;w2054640_Player_ID(PK)&lt;/span&gt;" style="text;strokeColor=none;fillColor=none;align=left;verticalAlign=middle;spacingLeft=4;spacingRight=4;overflow=hidden;points=[[0,0.5],[1,0.5]];portConstraint=eastwest;rotatable=0;whiteSpace=wrap;html=1;" vertex="1" parent="jAPhLrULdVB-Pl4PE20Y-46">
          <mxGeometry y="30" width="200" height="30" as="geometry" />
        </mxCell>
        <mxCell id="jAPhLrULdVB-Pl4PE20Y-48" value="&lt;span style=&quot;text-align: center;&quot;&gt;w2054640_Name&lt;/span&gt;" style="text;strokeColor=none;fillColor=none;align=left;verticalAlign=middle;spacingLeft=4;spacingRight=4;overflow=hidden;points=[[0,0.5],[1,0.5]];portConstraint=eastwest;rotatable=0;whiteSpace=wrap;html=1;" vertex="1" parent="jAPhLrULdVB-Pl4PE20Y-46">
          <mxGeometry y="60" width="200" height="30" as="geometry" />
        </mxCell>
        <mxCell id="jAPhLrULdVB-Pl4PE20Y-49" value="&lt;span style=&quot;text-align: center;&quot;&gt;w2054640_Contact_Details&lt;/span&gt;" style="text;strokeColor=none;fillColor=none;align=left;verticalAlign=middle;spacingLeft=4;spacingRight=4;overflow=hidden;points=[[0,0.5],[1,0.5]];portConstraint=eastwest;rotatable=0;whiteSpace=wrap;html=1;" vertex="1" parent="jAPhLrULdVB-Pl4PE20Y-46">
          <mxGeometry y="90" width="200" height="30" as="geometry" />
        </mxCell>
        <mxCell id="jAPhLrULdVB-Pl4PE20Y-50" value="&lt;span style=&quot;text-align: center;&quot;&gt;w2054640_Recommended_By(Fk)&lt;/span&gt;" style="text;strokeColor=none;fillColor=none;align=left;verticalAlign=middle;spacingLeft=4;spacingRight=4;overflow=hidden;points=[[0,0.5],[1,0.5]];portConstraint=eastwest;rotatable=0;whiteSpace=wrap;html=1;" vertex="1" parent="jAPhLrULdVB-Pl4PE20Y-46">
          <mxGeometry y="120" width="200" height="30" as="geometry" />
        </mxCell>
        <mxCell id="jAPhLrULdVB-Pl4PE20Y-73" value="" style="endArrow=none;html=1;rounded=0;curved=1;entryX=1;entryY=0.5;entryDx=0;entryDy=0;exitX=1;exitY=0.5;exitDx=0;exitDy=0;" edge="1" parent="jAPhLrULdVB-Pl4PE20Y-46" source="jAPhLrULdVB-Pl4PE20Y-49" target="jAPhLrULdVB-Pl4PE20Y-47">
          <mxGeometry width="50" height="50" relative="1" as="geometry">
            <mxPoint x="220" y="100" as="sourcePoint" />
            <mxPoint x="270" y="50" as="targetPoint" />
            <Array as="points">
              <mxPoint x="340" y="80" />
            </Array>
          </mxGeometry>
        </mxCell>
        <mxCell id="jAPhLrULdVB-Pl4PE20Y-51" value="w2054640_Caretaker" style="swimlane;fontStyle=0;childLayout=stackLayout;horizontal=1;startSize=30;horizontalStack=0;resizeParent=1;resizeParentMax=0;resizeLast=0;collapsible=1;marginBottom=0;whiteSpace=wrap;html=1;" vertex="1" parent="1">
          <mxGeometry x="340" y="1330" width="220" height="120" as="geometry" />
        </mxCell>
        <mxCell id="jAPhLrULdVB-Pl4PE20Y-52" value="&lt;span style=&quot;text-align: center;&quot;&gt;w2054640_Caretaker_ID(PK)&lt;/span&gt;" style="text;strokeColor=none;fillColor=none;align=left;verticalAlign=middle;spacingLeft=4;spacingRight=4;overflow=hidden;points=[[0,0.5],[1,0.5]];portConstraint=eastwest;rotatable=0;whiteSpace=wrap;html=1;" vertex="1" parent="jAPhLrULdVB-Pl4PE20Y-51">
          <mxGeometry y="30" width="220" height="30" as="geometry" />
        </mxCell>
        <mxCell id="jAPhLrULdVB-Pl4PE20Y-53" value="&lt;span style=&quot;text-align: center;&quot;&gt;w2054640_Name&lt;/span&gt;" style="text;strokeColor=none;fillColor=none;align=left;verticalAlign=middle;spacingLeft=4;spacingRight=4;overflow=hidden;points=[[0,0.5],[1,0.5]];portConstraint=eastwest;rotatable=0;whiteSpace=wrap;html=1;" vertex="1" parent="jAPhLrULdVB-Pl4PE20Y-51">
          <mxGeometry y="60" width="220" height="30" as="geometry" />
        </mxCell>
        <mxCell id="jAPhLrULdVB-Pl4PE20Y-54" value="&lt;span style=&quot;text-align: center;&quot;&gt;w2054640_Assigned_Area&lt;/span&gt;" style="text;strokeColor=none;fillColor=none;align=left;verticalAlign=middle;spacingLeft=4;spacingRight=4;overflow=hidden;points=[[0,0.5],[1,0.5]];portConstraint=eastwest;rotatable=0;whiteSpace=wrap;html=1;" vertex="1" parent="jAPhLrULdVB-Pl4PE20Y-51">
          <mxGeometry y="90" width="220" height="30" as="geometry" />
        </mxCell>
        <mxCell id="jAPhLrULdVB-Pl4PE20Y-55" value="w2054640_Park" style="swimlane;fontStyle=0;childLayout=stackLayout;horizontal=1;startSize=30;horizontalStack=0;resizeParent=1;resizeParentMax=0;resizeLast=0;collapsible=1;marginBottom=0;whiteSpace=wrap;html=1;" vertex="1" parent="1">
          <mxGeometry x="1180" y="1030" width="200" height="150" as="geometry" />
        </mxCell>
        <mxCell id="jAPhLrULdVB-Pl4PE20Y-56" value="&lt;span style=&quot;text-align: center;&quot;&gt;w2054640_Park_ID(PK)&lt;/span&gt;" style="text;strokeColor=none;fillColor=none;align=left;verticalAlign=middle;spacingLeft=4;spacingRight=4;overflow=hidden;points=[[0,0.5],[1,0.5]];portConstraint=eastwest;rotatable=0;whiteSpace=wrap;html=1;" vertex="1" parent="jAPhLrULdVB-Pl4PE20Y-55">
          <mxGeometry y="30" width="200" height="30" as="geometry" />
        </mxCell>
        <mxCell id="jAPhLrULdVB-Pl4PE20Y-57" value="&lt;span style=&quot;text-align: center;&quot;&gt;w2054640_Name&lt;/span&gt;" style="text;strokeColor=none;fillColor=none;align=left;verticalAlign=middle;spacingLeft=4;spacingRight=4;overflow=hidden;points=[[0,0.5],[1,0.5]];portConstraint=eastwest;rotatable=0;whiteSpace=wrap;html=1;" vertex="1" parent="jAPhLrULdVB-Pl4PE20Y-55">
          <mxGeometry y="60" width="200" height="30" as="geometry" />
        </mxCell>
        <mxCell id="jAPhLrULdVB-Pl4PE20Y-58" value="&lt;span style=&quot;text-align: center;&quot;&gt;w2054640_Location&lt;/span&gt;" style="text;strokeColor=none;fillColor=none;align=left;verticalAlign=middle;spacingLeft=4;spacingRight=4;overflow=hidden;points=[[0,0.5],[1,0.5]];portConstraint=eastwest;rotatable=0;whiteSpace=wrap;html=1;" vertex="1" parent="jAPhLrULdVB-Pl4PE20Y-55">
          <mxGeometry y="90" width="200" height="30" as="geometry" />
        </mxCell>
        <mxCell id="jAPhLrULdVB-Pl4PE20Y-59" value="&lt;span style=&quot;text-align: center;&quot;&gt;w2054640_Caretaker_ID(FK)&lt;/span&gt;" style="text;strokeColor=none;fillColor=none;align=left;verticalAlign=middle;spacingLeft=4;spacingRight=4;overflow=hidden;points=[[0,0.5],[1,0.5]];portConstraint=eastwest;rotatable=0;whiteSpace=wrap;html=1;" vertex="1" parent="jAPhLrULdVB-Pl4PE20Y-55">
          <mxGeometry y="120" width="200" height="30" as="geometry" />
        </mxCell>
        <mxCell id="jAPhLrULdVB-Pl4PE20Y-61" value="" style="endArrow=none;html=1;rounded=0;exitX=0.5;exitY=0;exitDx=0;exitDy=0;" edge="1" parent="1" source="jAPhLrULdVB-Pl4PE20Y-19">
          <mxGeometry width="50" height="50" relative="1" as="geometry">
            <mxPoint x="350" y="560" as="sourcePoint" />
            <mxPoint x="540" y="500" as="targetPoint" />
          </mxGeometry>
        </mxCell>
        <mxCell id="jAPhLrULdVB-Pl4PE20Y-62" value="" style="endArrow=none;html=1;rounded=0;exitX=0.5;exitY=0;exitDx=0;exitDy=0;" edge="1" parent="1" source="jAPhLrULdVB-Pl4PE20Y-28" target="jAPhLrULdVB-Pl4PE20Y-27">
          <mxGeometry width="50" height="50" relative="1" as="geometry">
            <mxPoint x="350" y="970" as="sourcePoint" />
            <mxPoint x="400" y="920" as="targetPoint" />
          </mxGeometry>
        </mxCell>
        <mxCell id="jAPhLrULdVB-Pl4PE20Y-64" value="" style="endArrow=none;html=1;rounded=0;entryX=0.501;entryY=1.049;entryDx=0;entryDy=0;entryPerimeter=0;" edge="1" parent="1" source="jAPhLrULdVB-Pl4PE20Y-13" target="jAPhLrULdVB-Pl4PE20Y-12">
          <mxGeometry width="50" height="50" relative="1" as="geometry">
            <mxPoint x="480" y="270" as="sourcePoint" />
            <mxPoint x="530" y="220" as="targetPoint" />
          </mxGeometry>
        </mxCell>
        <mxCell id="jAPhLrULdVB-Pl4PE20Y-65" value="" style="endArrow=none;html=1;rounded=0;" edge="1" parent="1">
          <mxGeometry width="50" height="50" relative="1" as="geometry">
            <mxPoint x="280" y="760" as="sourcePoint" />
            <mxPoint x="440" y="760" as="targetPoint" />
          </mxGeometry>
        </mxCell>
        <mxCell id="jAPhLrULdVB-Pl4PE20Y-70" value="" style="endArrow=none;html=1;rounded=0;exitX=0;exitY=0.5;exitDx=0;exitDy=0;curved=1;" edge="1" parent="1" source="jAPhLrULdVB-Pl4PE20Y-53">
          <mxGeometry width="50" height="50" relative="1" as="geometry">
            <mxPoint x="130" y="1250" as="sourcePoint" />
            <mxPoint x="180" y="1200" as="targetPoint" />
            <Array as="points">
              <mxPoint x="220" y="1340" />
            </Array>
          </mxGeometry>
        </mxCell>
        <mxCell id="jAPhLrULdVB-Pl4PE20Y-71" value="" style="endArrow=none;html=1;rounded=0;exitX=1;exitY=0.5;exitDx=0;exitDy=0;curved=1;entryX=0.187;entryY=1.185;entryDx=0;entryDy=0;entryPerimeter=0;" edge="1" parent="1" source="jAPhLrULdVB-Pl4PE20Y-53" target="jAPhLrULdVB-Pl4PE20Y-59">
          <mxGeometry width="50" height="50" relative="1" as="geometry">
            <mxPoint x="860" y="1240" as="sourcePoint" />
            <mxPoint x="910" y="1190" as="targetPoint" />
            <Array as="points">
              <mxPoint x="850" y="1360" />
            </Array>
          </mxGeometry>
        </mxCell>
        <mxCell id="jAPhLrULdVB-Pl4PE20Y-75" value="" style="endArrow=none;html=1;rounded=0;exitX=0.25;exitY=0;exitDx=0;exitDy=0;curved=1;" edge="1" parent="1" source="jAPhLrULdVB-Pl4PE20Y-41">
          <mxGeometry width="50" height="50" relative="1" as="geometry">
            <mxPoint x="160" y="1040" as="sourcePoint" />
            <mxPoint x="70" y="880" as="targetPoint" />
            <Array as="points">
              <mxPoint x="50" y="990" />
            </Array>
          </mxGeometry>
        </mxCell>
        <mxCell id="jAPhLrULdVB-Pl4PE20Y-76" value="" style="endArrow=none;html=1;rounded=0;exitX=1;exitY=0;exitDx=0;exitDy=0;" edge="1" parent="1" source="jAPhLrULdVB-Pl4PE20Y-41">
          <mxGeometry width="50" height="50" relative="1" as="geometry">
            <mxPoint x="420" y="960" as="sourcePoint" />
            <mxPoint x="470" y="910" as="targetPoint" />
          </mxGeometry>
        </mxCell>
        <mxCell id="jAPhLrULdVB-Pl4PE20Y-77" value="" style="endArrow=none;html=1;rounded=0;exitX=0.25;exitY=0;exitDx=0;exitDy=0;" edge="1" parent="1" source="jAPhLrULdVB-Pl4PE20Y-46">
          <mxGeometry width="50" height="50" relative="1" as="geometry">
            <mxPoint x="580" y="960" as="sourcePoint" />
            <mxPoint x="630" y="910" as="targetPoint" />
          </mxGeometry>
        </mxCell>
      </root>
    </mxGraphModel>
  </diagram>
</mxfile>
